<?xml version="1.0" encoding="utf-8"?>
<!-- Generator: Adobe Illustrator 25.2.3, SVG Export Plug-In . SVG Version: 6.00 Build 0)  -->
<svg version="1.1" xmlns="http://www.w3.org/2000/svg" xmlns:xlink="http://www.w3.org/1999/xlink" x="0px" y="0px"
	 viewBox="0 0 64 61.8" style="enable-background:new 0 0 64 61.8;" xml:space="preserve">
<style type="text/css">
	.st0{fill:#FFFFFF;}
</style>
<g id="Layer_2">
</g>
<g id="Layer_1">
	<g>
		<path class="st0" d="M23,55.2c-1.7,0.4-3.4,0.8-4.7,1.1c0,0-1.5-0.3-1.5-0.3c-1.1-0.2-2.5-0.7-3.1-1.6c0,0,0-0.1-0.1-0.1v-0.1
			c0-0.1-0.1-0.1-0.1-0.2c0,0,0-0.1,0-0.1C13.2,49.2,8.7,42,8.9,40.7c0.2-1.2,0.1-1.6,0.1-2l0,0c2.9-1,3.9-4.9,2.7-7.2
			c0,0,0.1,0,0.2-0.1c0.5,0.5,1.2,0.7,1.9,0.6c0.7,0,1.4-0.3,1.8-0.9l1.2,0.2c-0.5,3.7,1.9,6.3,4.2,6.3c3.1,0,4.9-3.8,4.2-7
			c2.2,0.4,1.7,0.4,2.8-0.3l8.7,0.3c0,0.4,0.1,0.7,0.1,1l14-8c-0.3-2-0.8-4-1.4-5.9c0.1-0.1,0.3-0.2,0.5-0.3c0.2,0,0.3-0.4-0.2-0.5
			c-0.3,0-0.3-0.4,0-0.4c0.3-0.1,0.4,0,0.5-0.1c0.2-0.3-0.6-0.7-1-0.8c-0.3,0-0.3-0.4,0-0.4c0.3,0,0.4,0,0.5-0.1
			c0.1-0.1,0.1-0.2,0-0.3c-0.8-1-1.8-0.7-1.5-1.1c1.4-1.8,1-4,0.6-3.2c-0.1,0.2-0.5,1-0.7,0.9c-0.3-0.1,0-0.4-0.2-1.6
			c0-0.3-0.5-0.3-0.5,0.1c-0.5,0.6-0.2-1.2-1.6-3.2c0-0.1-0.1-0.1-0.2-0.1c-0.4,0.1,0,0.4,0,1.9c0,0.2-0.3,0.3-0.4,0.1
			C44,5.7,41,4,41.1,4.9V5c0,0.2-0.2,0.2-0.3,0.1c-2.2-3.5-3.1-3.2-2.9-2.7c0.1,0.2-0.2,0.4-0.3,0.2c-0.8-1.2-2.3-1.8-3.7-1.5
			c-1.9-0.7-4-1-5.1-1c-2,0.6-4.1,0.8-6.2,0.6C22,0.3,21.3,0.1,20.6,0c-0.2,0-0.4,0.3-0.2,0.4C20.8,0.7,21,1,21,1.4
			c0,0.1-0.1,0.3-0.2,0.2c-0.5,0-1.6,0.2-1.7,0.5C19,2.6,18.4,3,18.2,3c-2.2-0.3-4.4,1.3-3,1.3c0.2,0,0.3,0.3,0.1,0.4
			c-1.6,0.8-1.5,0.8-1.6,0.8C9.7,4.5,8.4,7,9.3,6.8c0.6-0.2,1.3-0.2,2-0.1c0.3,0,0.3,0.4,0,0.4C10.1,7.4,8.6,7.8,8,7.8
			c-0.3,0-0.3,0.7-0.5,0.8C7.3,8.7,7.1,8.2,6.8,8.8C6.7,9,6.4,8.9,6.4,8.7C6.3,7.5,2.9,11.1,4.5,15c0,0.2-0.2,0.3-0.3,0.2
			c-0.4-0.4-0.8-0.9-1.2-1.3c-0.1-0.3-0.5-0.1-0.4,0.2c0.2,4.1,3.3,8.8,7.2,7.1c0.2,0,0.4-0.1,0.6-0.2l-0.1,1
			c-0.1,0.2-0.1,0.4-0.1,0.5c-0.1,0.6-0.2,0.7-0.6,1.4c-1.1,2.1-0.2,1.9-0.3,3c0,0.1-0.4,1.3-0.5,1.8c-5.3-1.1-6.6,10-0.3,10l0,0V40
			l-0.1,0.6v0.3c-0.1,1,3.9,9.6,4.1,12.5c0,0.5-0.1,1,0.6,2c1.3,1.7,2.7,1.7,4.7,2.1c0.7,0.1,1-0.2,1.4-0.2c0.9-0.2,2.2-0.6,3.5-1
			c0.9,1.2,1.8,2.6,2,4.6c1.2,0.4,2.5,0.7,3.8,0.9L33,51C32.5,51.3,27.8,53.6,23,55.2z M24.9,33c-0.4,2.8-2.7,4.7-5,3.7l0-0.1h-0.1
			c-0.2-0.1-0.4-0.2-0.6-0.4h0c-1.4-1.2-2-3.4-1.8-5.2c0,0,0,0,0,0c0.1-0.1,0.1-0.2,0-0.3c0.6-3.1,3.4-4.6,5.6-3.1
			C24.3,28.7,25.2,30.7,24.9,33z M9.7,27.5v-0.2c0.1-0.2,0.1-0.4,0.1-0.7c0-0.1,0-0.2,0-0.3c0-0.2-0.1-0.3-0.1-0.5
			c-0.2-1,0.9-1.7,1.3-3.2c0.1-0.2,0.1-0.4,0.1-0.5l0.2-1l0,0c0,0,0,0,0,0c0.2-0.5,0.4-1.1,0.6-1.6c0.6-1,0.6-2.1,1.4-2.9
			c0.3-0.4,0.8,0.9,1.9-0.3c0.1-0.1,0.1-0.3-0.1-0.4c-1.4-0.6,0.6-1.4,2-0.8c0.1,0,0.2,0,0.2-0.1c0.1-0.2-0.1-0.3,0.1-0.5
			c1.5-0.9,2.8-1.1,4.9-0.1c0.1,0,0.6,0.7-1.4,0.3c-0.2,0-0.3,0.3-0.1,0.4c0.4,0.3,0.9,0.5,1.5,0.6c0.3,0.1,0.3,0.6-1.1,0.8
			c-0.2,0-0.3,0.3-0.1,0.4c2.2,1.1,3.8,0.3,4,0.4c0.3,0.1,0.1,0.4-0.1,0.7c-0.1,0.2,0,0.4,0.2,0.3c2.1-0.8,2.2-1.9,4.2-2.1
			c0.2,0,0.3,0.3,0.1,0.4c-1,0.7-1,1.3-0.6,1.2l0.8-0.1c0.2,0,0.3,0.3,0.2,0.4c-0.5,0.4-1.8,1.7-1.7,2c0.1,0.5,1.8-0.6,1.6,0.1
			c-0.4,1.5,2.4,3.6,4.8,4.2c1.1,1.8,1.8,4,2.1,5.7c-9.9-0.4-8.5-0.4-9.6,0.3c-0.9-0.1-1.5-0.3-1.9-0.3c-1.4-4.7-7.2-4.5-8.2,0.7
			l-1.3-0.1c-0.4-0.1-0.4,0.8-1.8,0.9c-1.6,0.1-1.6-1-2-0.7c-0.2,0.1-0.3,0.2-0.4,0.2c-0.6-1.2-1.4-1.9-2.3-2.2
			C9.3,28.4,9.5,27.8,9.7,27.5z M6,30.1c0.9-1.1,2.2-1.3,3.4-0.7c3.3,1.7,2.6,8.1-0.8,8.8C4.8,38.4,3.6,32.8,6,30.1z"/>
		<path class="st0" d="M47.6,32.3c0.2,0.6,0.5,2,0.5,1.9c1.5-2.7,2.4-4.6,2.7-7.1l-5.3,3C46.6,30.5,47.3,31.3,47.6,32.3z"/>
		<path class="st0" d="M54.3,24.7c1.2-0.8,0.1-2.7-1.2-2.1c-0.9,0.5-22.3,12.8-22.4,13l-1.9,2.2c-0.1,0.1,0.1,0.5,0.3,0.5
			c3.6-0.8,1.5,0.2,12.2-6c0.7-1.4,2.2-2.3,3.7-2.1L54.3,24.7L54.3,24.7z"/>
		<path class="st0" d="M18.1,58.5h-0.2c-0.8-0.1-4.4-0.5-5.9-3.1c-1.1-1.9,0.6-1.3-1.8-6.3c-2.8-7.9-3-7.2-2.6-9.1v-0.6
			C2,38.5,2.1,28.2,8,27.8c0.3-1,0.3-0.7,0.3-1c0,0,0-0.1,0-0.2c-0.7-2.1,0.5-3,0.9-4.2c-2.1,0.4-4.2-0.4-5.9-3
			c-8.9,17.1,1.2,38.3,20.3,41.9c-0.4-1.3-1-2.6-1.7-3.7C20.6,58.1,19.3,58.3,18.1,58.5z"/>
		<path class="st0" d="M44.4,42c-0.4,0.2-0.8,0.4-1.3,0.5h-0.1c-0.9,0.2-3,0.1-3.8-0.2c-0.3,0.5-0.1,1-0.2,1.1
			c-0.2-0.2-0.3-0.5-0.3-0.8l-7.6,18.7h11.4l1.8-4.5h-5.8l6-14.9H44.4z"/>
		<path class="st0" d="M63.2,43.4c-1.3-1.8-3.9-1.7-5.9-1.7c-3.6,0-6.3,2.2-7.7,5.6c-3,7.6-3.6,8.2-3.7,10.6c0,4.3,4.5,3.8,8.5,3.7
			c2.1,0,2.8-0.1,4.1-0.2l3.8-9.6H55c-0.9,2.2-1,2.3-0.9,2.7c0.1,0.8,0.4,1.2,0.3,1.7v0.1c-0.1,0.4-0.3,0.7-0.6,0.9
			c-0.3,0.2-0.6,0.3-0.9,0.2c-0.3,0-0.5-0.1-0.7-0.3c-0.1-0.2,0-0.6,0.2-1.3c3.7-9.1,3.4-8.6,3.8-9.1c0.3-0.2,0.6-0.3,1-0.2
			c0.3,0,0.5,0.1,0.7,0.3c0.3,0.5,0.1,0.7-0.8,2.7c5.1,0,5.3,0.1,6-0.3C64,48.5,64.5,45.2,63.2,43.4z"/>
	</g>
</g>
</svg>
